<svg xmlns:xlink="http://www.w3.org/1999/xlink" xmlns="http://www.w3.org/2000/svg" fill="none" viewBox="0 0 20 14" height="14" width="20">
<path fill="#FF5F00" d="M12.504 2.26369L7.3395 2.28144L7.49599 11.7364L12.6605 11.7186L12.504 2.26369Z"></path>
<path fill="#EB001B" d="M7.67941 7.02798C7.64745 5.10492 8.50892 3.39621 9.85825 2.28786C8.83975 1.48864 7.56289 1.00804 6.17875 1.01278C2.89963 1.02401 0.291422 3.72537 0.346722 7.05309C0.402022 10.3808 3.09971 13.064 6.37883 13.0528C7.76297 13.048 9.02372 12.5587 10.0155 11.7526C8.6298 10.6704 7.71137 8.95103 7.67941 7.02798Z"></path>
<path fill="#F79E1B" d="M19.6533 6.94694C19.7086 10.2747 17.1004 12.976 13.8213 12.9873C12.4371 12.992 11.1603 12.5114 10.1418 11.7122C11.5076 10.6038 12.3526 8.89511 12.3206 6.97206C12.2886 5.049 11.3705 3.34639 9.98447 2.24741C10.9763 1.4413 12.237 0.952007 13.6212 0.947267C16.9003 0.936036 19.5983 3.63595 19.6533 6.94694Z"></path>
</svg>