<svg xmlns:xlink="http://www.w3.org/1999/xlink" xmlns="http://www.w3.org/2000/svg" fill="none" viewBox="0 0 186 127" height="127" width="186">
<rect fill="#1F72CD" rx="15.875" height="127" width="185.208"></rect>
<path fill="white" d="M33.2035 44.9792L15.875 83.3266H36.6196L39.1913 77.2124H45.0697L47.6415 83.3266H70.4755V78.6601L72.5101 83.3266H84.3216L86.3563 78.5614V83.3266H133.845L139.619 77.3712L145.026 83.3266L169.417 83.3759L152.034 64.26L169.417 44.9792H145.404L139.783 50.8246L134.547 44.9792H82.8854L78.4493 54.877L73.909 44.9792H53.2077V49.487L50.9048 44.9792H33.2035ZM104.118 50.4246H131.388L139.729 59.434L148.338 50.4246H156.679L144.006 64.2545L156.679 77.9251H147.96L139.619 68.811L130.966 77.9251H104.118V50.4246ZM110.852 61.1454V56.1222V56.1174H127.868L135.293 64.1507L127.539 72.228H110.852V66.7441H125.729V61.1454H110.852ZM37.2174 50.4246H47.3293L58.8233 76.4281V50.4246H69.9005L78.7782 69.069L86.9601 50.4246H97.982V77.9413H91.2754L91.2207 56.3794L81.4432 77.9413H75.4439L65.6117 56.3794V77.9413H51.8148L49.1992 71.7724H35.0679L32.4577 77.9359H25.0655L37.2174 50.4246ZM37.4809 66.0693L42.1366 55.08L46.7869 66.0693H37.4809Z" clip-rule="evenodd" fill-rule="evenodd"></path>
</svg>