<svg xmlns:xlink="http://www.w3.org/1999/xlink" xmlns="http://www.w3.org/2000/svg" fill="none" viewBox="0 0 20 8" height="8" width="20">
<path fill="#3362AB" d="M18.655 1.01751H17.3977C17.0175 1.01751 16.7251 1.13447 16.5497 1.51459L14.152 6.98242H15.848C15.848 6.98242 16.1404 6.25143 16.1988 6.07599C16.3743 6.07599 18.0409 6.07599 18.2749 6.07599C18.3333 6.28067 18.4795 6.95318 18.4795 6.95318H20L18.655 1.01751ZM16.6667 4.84792C16.8129 4.49704 17.3099 3.18125 17.3099 3.18125C17.3099 3.21049 17.4561 2.83038 17.5146 2.6257L17.6316 3.15201C17.6316 3.15201 17.9532 4.58476 18.0117 4.87716H16.6667V4.84792Z"></path>
<path fill="#3362AB" d="M14.269 5.02338C14.269 6.25145 13.1579 7.07016 11.4327 7.07016C10.7018 7.07016 10 6.92396 9.61988 6.74852L9.8538 5.40349L10.0585 5.49121C10.5848 5.72513 10.9357 5.81285 11.5789 5.81285C12.0468 5.81285 12.5439 5.63741 12.5439 5.22806C12.5439 4.9649 12.3392 4.78946 11.6959 4.49706C11.0819 4.20466 10.2632 3.73683 10.2632 2.88887C10.2632 1.71928 11.4035 0.92981 13.0117 0.92981C13.6257 0.92981 14.152 1.04677 14.4737 1.19297L14.2398 2.47952L14.1228 2.36256C13.8304 2.2456 13.4503 2.12864 12.8947 2.12864C12.2807 2.15788 11.9883 2.42104 11.9883 2.65496C11.9883 2.91811 12.3392 3.12279 12.8947 3.38595C13.8304 3.82455 14.269 4.32162 14.269 5.02338Z"></path>
<path fill="#F9B50B" d="M0 1.07603L0.0292398 0.959068H2.54386C2.89474 0.959068 3.15789 1.07603 3.24561 1.45614L3.80117 4.08772C3.24561 2.68421 1.95906 1.54386 0 1.07603Z"></path>
<path fill="#3362AB" d="M7.33918 1.01753L4.79532 6.9532H3.07017L1.60819 1.98244C2.66082 2.65496 3.53801 3.70759 3.85965 4.43858L4.03509 5.05262L5.61403 0.988289H7.33918V1.01753Z"></path>
<path fill="#3362AB" d="M8.0117 0.988289H9.61989L8.59649 6.9532H6.98831L8.0117 0.988289Z"></path>
</svg>